<svg viewBox="0 0 819 345" fill="none" xmlns="http://www.w3.org/2000/svg">
<path d="M534.604 35.4458C534.604 50.0423 522.771 61.8785 508.175 61.8785C493.578 61.8785 481.742 50.0423 481.742 35.4458C481.742 20.8494 493.578 9.01709 508.175 9.01709C522.771 9.01709 534.604 20.8494 534.604 35.4458Z" fill="#515BE0"/>
<path d="M585.5 102L819 344H352L585.5 102Z" fill="#999FED"/>
<path d="M332.554 1L646.555 344.5H0L332.554 1Z" fill="#6E76E5"/>
<path d="M508.173 70.6892C488.711 70.6892 472.934 54.9115 472.934 35.4457C472.934 15.9838 488.711 0.206055 508.173 0.206055C527.635 0.206055 543.413 15.9838 543.413 35.4457C543.413 54.9115 527.635 70.6892 508.173 70.6892ZM508.173 17.8239C498.442 17.8239 490.551 25.7147 490.551 35.4457C490.551 45.1766 498.442 53.0675 508.173 53.0675C517.904 53.0675 525.795 45.1766 525.795 35.4457C525.795 25.7147 517.904 17.8239 508.173 17.8239Z" fill="#515BE0"/>
</svg>
