<svg width="183" height="43" viewBox="0 0 183 43" fill="none" xmlns="http://www.w3.org/2000/svg">
<path d="M157.574 37.5C156.036 39.0575 167.479 19.3457 161.894 23.136L161.074 25.1977C161.074 25.1977 157.956 35.886 158.128 25.1977C158.3 14.5093 168.615 9.70147 176.989 5.51894C175.288 22.4865 159.111 35.9425 157.574 37.5Z" fill="#97C738" stroke="#98C73A"/>
<path d="M28.7268 18.2811C29.4906 18.2811 29.8724 18.5464 29.8724 19.0758C29.8724 19.7783 29.3424 20.8496 28.2821 22.2887C27.4272 23.4409 26.2017 24.2116 24.6059 24.6033C24.1271 24.7309 23.6882 24.7941 23.2893 24.7941C22.9017 24.7941 22.4798 24.765 22.0238 24.7069C20.8497 24.5578 19.3792 24.4592 17.6122 24.4138C16.2215 26.9014 15.1955 28.8016 14.5344 30.1143L17.1848 30.0448C17.7205 30.0676 18.376 30.0385 19.1512 29.9589L20.861 29.8035C21.2031 29.7682 21.4311 29.7454 21.545 29.734C22.0124 29.6873 22.3031 29.7517 22.4172 29.9236C22.6338 30.2344 22.7421 30.597 22.7421 31.0126C22.7421 31.427 22.7136 31.7833 22.6565 32.0827C22.5995 32.3708 22.5197 32.6475 22.4172 32.9116C22.1891 33.4991 21.9326 33.9084 21.6477 34.1383C21.0321 34.6336 20.0062 34.8812 18.5698 34.8812C18.2963 34.8812 18.034 34.8699 17.7832 34.8471L12.568 34.4327C11.6902 36.5401 11.0005 38.5957 10.4989 40.5982C10.1113 42.1194 8.64653 42.8787 6.10438 42.8787C4.00684 42.8787 2.66748 42.3834 2.08603 41.3929C1.8923 41.0594 1.81813 40.7423 1.86378 40.4428C1.90943 40.1434 2.01762 39.8099 2.18871 39.4409C2.37106 39.0619 2.61044 38.5957 2.90686 38.0423L5.33495 33.8452C5.2893 33.8452 5.13547 33.8339 4.8732 33.8099C4.62243 33.7871 4.43433 33.7581 4.30901 33.7239C4.00121 33.6203 3.75045 33.4308 3.55659 33.1541C3.36286 32.8774 3.26593 32.5894 3.26593 32.2899C3.26593 31.7025 3.4369 31.2603 3.77884 30.9608C4.12091 30.6614 4.47423 30.4883 4.83906 30.4416C5.21526 30.3961 5.61998 30.367 6.0531 30.3557L7.48939 30.3215C9.24499 27.5685 10.5161 25.6229 11.3026 24.4833C8.47557 24.6905 6.01896 25.3639 3.9328 26.5035C3.35136 26.8256 2.87834 27.1428 2.51352 27.4536C2.1602 27.7644 1.85803 27.9198 1.60726 27.9198C1.3565 27.9198 1.13988 27.8857 0.957528 27.8162C0.786558 27.7353 0.626973 27.6317 0.478766 27.5054C0.15959 27.2173 0 26.9065 0 26.573C0 26.2268 0.091176 25.9109 0.273527 25.6229C2.45086 22.2255 4.87895 20.1472 7.55781 19.3866C8.50396 19.1226 9.5414 18.9899 10.6699 18.9899C15.3665 18.9899 19.0942 18.9318 21.8528 18.8168C24.623 18.7018 26.1333 18.6273 26.3842 18.5919L27.9745 18.3506C28.2366 18.3051 28.4874 18.2811 28.7268 18.2811ZM55.8289 29.4915C56.1941 29.4915 56.3767 29.8035 56.3767 30.4251C56.3767 31.4953 55.635 32.8838 54.153 34.5881L53.1787 35.59C50.2258 38.5717 47.4449 40.5591 44.8343 41.5483C43.2155 42.1586 42.0529 42.1308 41.3461 41.4624C40.7647 40.8977 40.303 39.988 39.961 38.7334L39.5506 37.2299L35.9085 39.4927L33.8053 40.7018C31.2974 42.084 29.4164 42.7751 28.1625 42.7751C26.5552 42.7751 25.2157 42.1472 24.1441 40.8926C23.1182 39.7062 22.6053 38.3304 22.6053 36.7637C22.6053 35.2211 23.2151 33.8452 24.4349 32.6361C26.179 30.909 28.932 29.3247 32.6938 27.8857C36.2504 26.5388 39.1231 25.8642 41.3119 25.8642C42.0529 25.8642 42.4233 26.2331 42.4233 26.9697C42.4233 27.4763 42.3264 27.8566 42.1327 28.1105C41.9388 28.3632 41.5399 28.6222 40.9356 28.8875L38.7812 29.82C35.5893 31.168 33.2524 32.5666 31.7705 34.0171C31.3487 34.4201 31.1377 34.8117 31.1377 35.192C31.1377 35.5723 31.4399 35.7618 32.0441 35.7618C32.6368 35.7618 34.0162 35.1175 36.182 33.8275L37.6013 32.981C39.8014 31.6456 41.6424 30.9773 43.1244 30.9773C44.3783 30.9773 45.2105 31.5357 45.6209 32.6526C45.7236 32.952 45.8204 33.2577 45.9115 33.5685C46.0028 33.868 46.094 34.1383 46.1852 34.3809C46.3904 34.9444 46.5728 35.2262 46.7324 35.2262C46.9033 35.2262 47.1427 35.1466 47.4505 34.9848C47.7583 34.8117 48.0946 34.5995 48.4598 34.3455C48.835 34.0815 49.2227 33.7934 49.6217 33.4826L51.6916 31.8061C53.5264 30.2634 54.9059 29.4915 55.8289 29.4915ZM68.4659 31.9627C68.4659 31.6166 68.2257 31.4435 67.748 31.4435C67.269 31.4435 66.7437 31.5357 66.1746 31.7201C65.6043 31.9046 64.9777 32.1459 64.2936 32.4454C63.6095 32.7448 62.8966 33.0846 62.1561 33.4649C61.4145 33.8452 60.7028 34.2306 60.0187 34.6222C58.5479 35.4624 57.5448 36.108 57.0095 36.5565C56.4842 36.9949 56.0515 37.3803 55.7101 37.7138C55.3786 38.0486 55.0485 38.3531 54.7183 38.6298C53.9428 39.2742 53.355 39.5963 52.9561 39.5963C52.5571 39.5963 52.1981 39.5332 51.8792 39.4068C51.5603 39.2691 51.2689 39.0783 51.0075 38.837C50.3921 38.2495 50.0832 37.5534 50.0832 36.7473C50.0832 35.3184 51.3327 32.5148 53.829 28.3342C54.8996 26.5388 55.9377 24.9608 56.9408 23.6014C57.9438 22.2318 58.9068 21.0682 59.8299 20.1131C60.7541 19.1453 61.6371 18.3279 62.4813 17.6595C64.2135 16.29 65.593 15.6039 66.6186 15.6039C66.915 15.6039 67.1602 15.7138 67.354 15.9324C67.5479 16.151 67.6454 16.3872 67.6454 16.6412C67.6454 17.216 67.4628 17.8149 67.0976 18.4365C66.7437 19.0467 66.2709 19.8187 65.6781 20.7511L62.0361 26.3304C60.8967 28.1042 60.2976 29.1011 60.2413 29.3196C60.1951 29.5268 60.1725 29.6759 60.1725 29.7682C60.1725 29.8604 60.2351 29.9071 60.3601 29.9071C60.4865 29.9071 60.8392 29.7745 61.4207 29.5092C61.4207 29.5092 62.1499 29.1756 63.6094 28.5073C66.9038 27.0569 69.5652 26.3304 71.5951 26.3304C72.7458 26.3304 73.7088 26.8661 74.4842 27.9375C75.2021 28.9394 75.5623 30.0221 75.5623 31.1845C75.5623 32.3481 75.3847 33.35 75.032 34.1901C74.6781 35.0316 74.154 35.6936 73.4586 36.1762C72.7745 36.6601 72.0904 37.1099 71.4063 37.5243L69.2175 38.837C65.0803 41.1743 62.0761 42.343 60.2063 42.343C57.6186 42.343 56.3254 41.6646 56.3254 40.3051C56.3254 39.5685 56.6781 39.0215 57.3848 38.6639C63.8946 35.1061 67.2915 33.235 67.5766 33.0505C68.1695 32.6702 68.4659 32.3076 68.4659 31.9627ZM90.4043 22.4959C90.0728 22.7726 89.7139 23.0025 89.3262 23.187C88.9397 23.3601 88.5057 23.446 88.0267 23.446C87.5489 23.446 87.0862 23.3651 86.6422 23.2047C86.1969 23.0429 85.8105 22.8193 85.479 22.5313C84.7612 21.9084 84.4022 21.115 84.4022 20.1472C84.4022 18.6614 85.6329 17.5559 88.0955 16.8307C88.9272 16.5767 89.6113 16.4504 90.1479 16.4504C90.6832 16.4504 91.0821 16.5136 91.3448 16.6412C91.6174 16.7562 91.8401 16.9116 92.0114 17.1074C92.3528 17.4991 92.5242 17.9021 92.5242 18.3165C92.5242 18.7195 92.4729 19.0872 92.3704 19.422C92.2791 19.7555 92.1427 20.1004 91.9601 20.458C91.7775 20.8155 91.5549 21.1718 91.2935 21.5294C91.0309 21.8857 90.7344 22.2078 90.4043 22.4959ZM86.0944 41.5142C85.2289 41.964 84.3847 42.3203 83.5642 42.5856C82.7438 42.861 81.9346 43 81.1366 43C80.35 43 79.5282 42.8092 78.674 42.4302C77.8298 42.0385 77.0781 41.5205 76.4165 40.8749C74.9457 39.4359 74.2116 37.8351 74.2116 36.0726C74.2116 34.4491 74.6893 32.8029 75.6474 31.1327C76.5253 29.6241 77.6422 28.3582 78.9992 27.3323C80.355 26.3076 81.6144 25.796 82.7775 25.796C84.4422 25.796 85.3315 26.2672 85.4453 27.2123C85.479 27.5003 85.4966 27.8339 85.4966 28.2141C85.4966 28.5932 85.4053 29.0316 85.2227 29.5268C85.0513 30.0107 84.8237 30.4997 84.5385 30.9949C84.2659 31.4788 83.957 31.9564 83.6155 32.4289C83.2853 32.8888 82.9664 33.3095 82.6575 33.6898C82.0647 34.415 81.5919 34.9394 81.2392 35.2615C81.2392 35.6532 81.5294 36.0562 82.1109 36.4706C82.6575 36.8623 83.1202 37.0581 83.4954 37.0581C83.8832 37.0581 84.3334 36.9659 84.8462 36.7814C85.3715 36.597 85.9068 36.3493 86.4546 36.0385C87.0124 35.7277 87.5765 35.3702 88.1468 34.9671C88.7283 34.5641 89.2987 34.1497 89.8565 33.7239L92.9857 31.2539C94.2289 30.3443 95.2369 29.8894 96.0124 29.8894C96.32 29.8894 96.5539 30.0044 96.714 30.2344C96.8841 30.4529 96.9704 30.7132 96.9704 31.0126C96.9704 31.3121 96.8216 31.7265 96.5252 32.2558C96.2287 32.7738 95.8185 33.35 95.2945 33.9829C94.7817 34.6159 94.1776 35.278 93.4822 35.969C92.7868 36.6601 92.0339 37.3399 91.2247 38.0082C90.4155 38.6753 89.5713 39.3146 88.6946 39.9248C87.8279 40.5237 86.9611 41.0531 86.0944 41.5142ZM111.146 31.8238C111.146 32.4454 111.67 32.7562 112.719 32.7562C113.493 32.7562 114.509 32.3771 115.762 31.6165L117.13 30.856C117.552 30.6146 117.917 30.4934 118.225 30.4934C118.544 30.4934 118.795 30.5919 118.976 30.7877C119.159 30.9836 119.25 31.2539 119.25 31.5989C119.25 31.945 119.136 32.3481 118.909 32.808C118.68 33.2577 118.367 33.7353 117.968 34.2419C117.569 34.7372 117.102 35.2325 116.566 35.7277C116.03 36.2116 115.454 36.6488 114.839 37.0404C113.471 37.9046 112.2 38.3354 111.026 38.3354C109.784 38.3354 108.792 38.1232 108.05 37.6974C107.823 37.5584 107.6 37.4144 107.384 37.2653C106.164 38.6702 104.397 39.9602 102.083 41.1339C99.6206 42.3784 97.4719 43 95.6359 43C93.7098 43 92.1878 42.2344 91.0709 40.7018C90.1704 39.4586 89.7201 38.1977 89.7201 36.9191C89.7201 35.0771 90.6944 33.3209 92.6443 31.6507C94.0801 30.4302 95.4658 29.5041 96.7991 28.8699C98.1448 28.2369 99.358 27.7479 100.441 27.4018C102.732 26.6766 104.796 26.314 106.631 26.314C107.452 26.314 108.182 26.4744 108.819 26.7978C109.47 27.1086 109.949 27.4245 110.257 27.7479C110.986 28.4731 111.351 29.4005 111.351 30.5287C111.351 30.8623 111.316 31.1213 111.248 31.3057C111.18 31.4902 111.146 31.6633 111.146 31.8238ZM97.158 35.0884L97.1405 35.1402V35.1579C97.1405 35.6532 97.2493 35.9754 97.4657 36.1244C97.991 36.4479 98.5438 36.5338 99.1241 36.3847C99.7057 36.223 100.258 36.0272 100.784 35.7972C102.083 35.2325 103.256 34.5186 104.306 33.6544C104.123 33.2868 104.032 32.9065 104.032 32.5148C104.032 31.686 104.391 30.856 105.11 30.0272C104.197 30.0272 102.966 30.4592 101.415 31.3234C99.7057 32.2786 98.4237 33.2628 97.5682 34.2773C97.2956 34.6222 97.158 34.8926 97.158 35.0884ZM136.486 30.2697C137.216 30.2697 137.58 30.5742 137.58 31.1845C137.58 31.9337 137.136 32.8256 136.247 33.8617C134.776 35.59 133.044 37.2704 131.049 38.9065C127.8 41.5319 124.898 42.8446 122.346 42.8446C120.51 42.8446 119.005 42.0385 117.831 40.4264C116.611 38.7448 116.002 36.4883 116.002 33.6544C116.002 29.9349 117.797 25.8237 121.388 21.3222C123.668 18.4542 125.816 16.5085 127.834 15.4839C128.462 15.1604 128.941 15 129.271 15C129.612 15 129.92 15.0569 130.194 15.1718C130.479 15.2754 130.742 15.4258 130.98 15.6216C131.54 16.0941 131.818 16.6639 131.818 17.331C131.818 17.9994 131.636 18.7941 131.272 19.7151C130.907 20.6248 130.376 21.5976 129.681 22.6349C128.21 24.8345 126.222 26.9419 123.714 28.957C123.064 30.2116 122.738 31.7201 122.738 33.4826C122.738 34.2773 122.99 35.0253 123.491 35.7277C124.004 36.4302 124.568 36.7814 125.184 36.7814C126.028 36.7814 127.641 35.9008 130.022 34.1383L133.067 31.772C134.31 30.7701 135.449 30.2697 136.486 30.2697ZM163.452 29.4915C163.817 29.4915 164 29.8035 164 30.4251C164 31.4953 163.258 32.8838 161.776 34.5881L160.802 35.59C157.849 38.5717 155.068 40.5591 152.457 41.5483C150.839 42.1586 149.676 42.1308 148.969 41.4624C148.388 40.8977 147.926 39.988 147.585 38.7334L147.173 37.2299L143.531 39.4927L141.429 40.7018C138.92 42.084 137.04 42.7751 135.786 42.7751C134.178 42.7751 132.839 42.1472 131.767 40.8926C130.742 39.7062 130.229 38.3304 130.229 36.7637C130.229 35.2211 130.838 33.8452 132.057 32.6361C133.802 30.909 136.555 29.3247 140.317 27.8857C143.874 26.5388 146.747 25.8642 148.935 25.8642C149.676 25.8642 150.046 26.2331 150.046 26.9697C150.046 27.4763 149.95 27.8566 149.756 28.1105C149.562 28.3632 149.163 28.6222 148.559 28.8875L146.404 29.82C143.212 31.168 140.876 32.5666 139.394 34.0171C138.971 34.4201 138.761 34.8117 138.761 35.192C138.761 35.5723 139.062 35.7618 139.667 35.7618C140.259 35.7618 141.639 35.1175 143.805 33.8275L145.225 32.981C147.425 31.6456 149.266 30.9773 150.748 30.9773C152.001 30.9773 152.834 31.5357 153.244 32.6526C153.347 32.952 153.443 33.2577 153.534 33.5685C153.625 33.868 153.717 34.1383 153.808 34.3809C154.013 34.9444 154.196 35.2262 154.356 35.2262C154.526 35.2262 154.766 35.1466 155.074 34.9848C155.381 34.8117 155.718 34.5995 156.082 34.3455C156.458 34.0815 156.846 33.7934 157.245 33.4826L159.314 31.8061C161.15 30.2634 162.529 29.4915 163.452 29.4915Z" fill="#97C738"/>
</svg>
