<svg width="225" height="208" viewBox="0 0 225 208" fill="none" xmlns="http://www.w3.org/2000/svg">
<path d="M12.4977 50.2491L23.9881 88.7083C21.3849 166.721 68.2833 208.546 118.783 206.956C169.283 205.367 207.65 176.607 217.6 116.378C220.068 111.446 222.062 106.155 223.345 99.6148C225.507 88.596 221.622 70.9139 221.622 70.9139L219.891 71.0303L220.465 89.2825H217.6V70.9139H215.877V89.2825H213.579V70.9139H211.855L211.273 89.3989H208.4L209.557 70.9139H207.826C207.826 70.9139 203.097 89.3436 205.535 100.763C206.779 106.588 210.706 115.113 210.706 115.113C210.706 185.144 101.627 248.578 40.6491 151.851C27.4352 123.724 29.0945 117.862 36.053 112.817C63.8545 101.593 74.8692 90.3317 85.4614 62.3036C53.6872 64.8793 43.3804 75.0172 32.6059 101.911L55.5865 82.3943L30.3078 112.817C27.1427 107.58 30.6352 74.0978 49.2668 54.2673C94.1289 53.1312 118.16 47.4397 157.276 20.4001C99.0195 -11.6478 73.7397 -4.88455 40.6491 47.379C67.2716 19.072 82.9985 12.0632 112.464 15.2342C64.4839 27.1056 44.3957 41.1047 27.4352 86.4123L25.7117 80.6721C32.4918 56.1673 31.2038 41.5025 12.4977 12.3641C4.45455 29.5847 -5.88679 50.2491 7.32709 67.4696C20.541 84.6902 15.3703 77.228 15.3703 77.228L12.4977 50.2491Z" fill="#97C738" stroke="#98C73A"/>
<path d="M69.7268 114.281C70.4906 114.281 70.8724 114.546 70.8724 115.076C70.8724 115.778 70.3424 116.85 69.2821 118.289C68.4272 119.441 67.2017 120.212 65.6059 120.603C65.1271 120.731 64.6882 120.794 64.2893 120.794C63.9017 120.794 63.4798 120.765 63.0238 120.707C61.8497 120.558 60.3792 120.459 58.6122 120.414C57.2215 122.901 56.1955 124.802 55.5344 126.114L58.1848 126.045C58.7206 126.068 59.376 126.039 60.1512 125.959L61.861 125.804C62.2031 125.768 62.4311 125.745 62.545 125.734C63.0124 125.687 63.3031 125.752 63.4172 125.924C63.6338 126.234 63.7421 126.597 63.7421 127.013C63.7421 127.427 63.7136 127.783 63.6565 128.083C63.5995 128.371 63.5197 128.648 63.4172 128.912C63.1891 129.499 62.9326 129.908 62.6477 130.138C62.0321 130.634 61.0062 130.881 59.5698 130.881C59.2963 130.881 59.034 130.87 58.7832 130.847L53.568 130.433C52.6902 132.54 52.0005 134.596 51.4989 136.598C51.1113 138.119 49.6465 138.879 47.1044 138.879C45.0068 138.879 43.6675 138.383 43.086 137.393C42.8923 137.059 42.8181 136.742 42.8638 136.443C42.9094 136.143 43.0176 135.81 43.1887 135.441C43.3711 135.062 43.6104 134.596 43.9069 134.042L46.335 129.845C46.2893 129.845 46.1355 129.834 45.8732 129.81C45.6224 129.787 45.4343 129.758 45.309 129.724C45.0012 129.62 44.7504 129.431 44.5566 129.154C44.3629 128.877 44.2659 128.589 44.2659 128.29C44.2659 127.702 44.4369 127.26 44.7788 126.961C45.1209 126.661 45.4742 126.488 45.8391 126.442C46.2153 126.396 46.62 126.367 47.0531 126.356L48.4894 126.322C50.245 123.569 51.5161 121.623 52.3026 120.483C49.4756 120.69 47.019 121.364 44.9328 122.503C44.3514 122.826 43.8783 123.143 43.5135 123.454C43.1602 123.764 42.858 123.92 42.6073 123.92C42.3565 123.92 42.1399 123.886 41.9575 123.816C41.7866 123.735 41.627 123.632 41.4788 123.505C41.1596 123.217 41 122.906 41 122.573C41 122.227 41.0912 121.911 41.2735 121.623C43.4509 118.226 45.8789 116.147 48.5578 115.387C49.504 115.123 50.5414 114.99 51.6699 114.99C56.3665 114.99 60.0942 114.932 62.8528 114.817C65.623 114.702 67.1333 114.627 67.3842 114.592L68.9745 114.351C69.2366 114.305 69.4874 114.281 69.7268 114.281ZM96.8289 125.491C97.1941 125.491 97.3767 125.804 97.3767 126.425C97.3767 127.495 96.635 128.884 95.153 130.588L94.1787 131.59C91.2258 134.572 88.4449 136.559 85.8343 137.548C84.2155 138.159 83.0529 138.131 82.3461 137.462C81.7647 136.898 81.303 135.988 80.961 134.733L80.5506 133.23L76.9085 135.493L74.8053 136.702C72.2974 138.084 70.4164 138.775 69.1625 138.775C67.5552 138.775 66.2157 138.147 65.1441 136.893C64.1182 135.706 63.6053 134.33 63.6053 132.764C63.6053 131.221 64.2151 129.845 65.4349 128.636C67.179 126.909 69.932 125.325 73.6938 123.886C77.2504 122.539 80.1231 121.864 82.3119 121.864C83.0529 121.864 83.4233 122.233 83.4233 122.97C83.4233 123.476 83.3264 123.857 83.1327 124.111C82.9388 124.363 82.5399 124.622 81.9356 124.888L79.7812 125.82C76.5893 127.168 74.2524 128.567 72.7705 130.017C72.3487 130.42 72.1377 130.812 72.1377 131.192C72.1377 131.572 72.4399 131.762 73.0441 131.762C73.6368 131.762 75.0162 131.117 77.182 129.828L78.6013 128.981C80.8014 127.646 82.6424 126.977 84.1244 126.977C85.3783 126.977 86.2105 127.536 86.6209 128.653C86.7236 128.952 86.8204 129.258 86.9115 129.569C87.0028 129.868 87.094 130.138 87.1852 130.381C87.3904 130.944 87.5728 131.226 87.7324 131.226C87.9033 131.226 88.1427 131.147 88.4505 130.985C88.7583 130.812 89.0946 130.599 89.4598 130.346C89.835 130.081 90.2227 129.793 90.6217 129.483L92.6916 127.806C94.5264 126.263 95.9059 125.491 96.8289 125.491ZM109.466 127.963C109.466 127.617 109.226 127.443 108.748 127.443C108.269 127.443 107.744 127.536 107.175 127.72C106.604 127.905 105.978 128.146 105.294 128.445C104.609 128.745 103.897 129.085 103.156 129.465C102.414 129.845 101.703 130.231 101.019 130.622C99.5479 131.462 98.5448 132.108 98.0095 132.557C97.4842 132.995 97.0515 133.38 96.7101 133.714C96.3786 134.049 96.0485 134.353 95.7183 134.63C94.9428 135.274 94.355 135.596 93.9561 135.596C93.5571 135.596 93.1981 135.533 92.8792 135.407C92.5603 135.269 92.2689 135.078 92.0075 134.837C91.3921 134.25 91.0832 133.553 91.0832 132.747C91.0832 131.318 92.3327 128.515 94.829 124.334C95.8996 122.539 96.9377 120.961 97.9408 119.601C98.9438 118.232 99.9068 117.068 100.83 116.113C101.754 115.145 102.637 114.328 103.481 113.66C105.214 112.29 106.593 111.604 107.619 111.604C107.915 111.604 108.16 111.714 108.354 111.932C108.548 112.151 108.645 112.387 108.645 112.641C108.645 113.216 108.463 113.815 108.098 114.437C107.744 115.047 107.271 115.819 106.678 116.751L103.036 122.33C101.897 124.104 101.298 125.101 101.241 125.32C101.195 125.527 101.173 125.676 101.173 125.768C101.173 125.86 101.235 125.907 101.36 125.907C101.486 125.907 101.839 125.774 102.421 125.509C102.421 125.509 103.15 125.176 104.609 124.507C107.904 123.057 110.565 122.33 112.595 122.33C113.746 122.33 114.709 122.866 115.484 123.937C116.202 124.939 116.562 126.022 116.562 127.184C116.562 128.348 116.385 129.35 116.032 130.19C115.678 131.032 115.154 131.694 114.459 132.176C113.775 132.66 113.09 133.11 112.406 133.524L110.218 134.837C106.08 137.174 103.076 138.343 101.206 138.343C98.6186 138.343 97.3254 137.665 97.3254 136.305C97.3254 135.569 97.6781 135.021 98.3848 134.664C104.895 131.106 108.291 129.235 108.577 129.051C109.169 128.67 109.466 128.308 109.466 127.963ZM131.404 118.496C131.073 118.773 130.714 119.003 130.326 119.187C129.94 119.36 129.506 119.446 129.027 119.446C128.549 119.446 128.086 119.365 127.642 119.205C127.197 119.043 126.81 118.819 126.479 118.531C125.761 117.908 125.402 117.115 125.402 116.147C125.402 114.661 126.633 113.556 129.095 112.831C129.927 112.577 130.611 112.45 131.148 112.45C131.683 112.45 132.082 112.514 132.345 112.641C132.617 112.756 132.84 112.912 133.011 113.107C133.353 113.499 133.524 113.902 133.524 114.316C133.524 114.72 133.473 115.087 133.37 115.422C133.279 115.756 133.143 116.1 132.96 116.458C132.778 116.816 132.555 117.172 132.294 117.529C132.031 117.886 131.734 118.208 131.404 118.496ZM127.094 137.514C126.229 137.964 125.385 138.32 124.564 138.586C123.744 138.861 122.935 139 122.137 139C121.35 139 120.528 138.809 119.674 138.43C118.83 138.039 118.078 137.521 117.417 136.875C115.946 135.436 115.212 133.835 115.212 132.073C115.212 130.449 115.689 128.803 116.647 127.133C117.525 125.624 118.642 124.358 119.999 123.332C121.355 122.308 122.614 121.796 123.778 121.796C125.442 121.796 126.331 122.267 126.445 123.212C126.479 123.5 126.497 123.834 126.497 124.214C126.497 124.593 126.405 125.032 126.223 125.527C126.051 126.011 125.824 126.5 125.539 126.995C125.266 127.479 124.957 127.956 124.616 128.429C124.285 128.889 123.966 129.31 123.657 129.69C123.065 130.415 122.592 130.939 122.239 131.262C122.239 131.653 122.529 132.056 123.111 132.471C123.657 132.862 124.12 133.058 124.495 133.058C124.883 133.058 125.333 132.966 125.846 132.781C126.371 132.597 126.907 132.349 127.455 132.039C128.012 131.728 128.576 131.37 129.147 130.967C129.728 130.564 130.299 130.15 130.856 129.724L133.986 127.254C135.229 126.344 136.237 125.889 137.012 125.889C137.32 125.889 137.554 126.004 137.714 126.234C137.884 126.453 137.97 126.713 137.97 127.013C137.97 127.312 137.822 127.726 137.525 128.256C137.229 128.774 136.819 129.35 136.294 129.983C135.782 130.616 135.178 131.278 134.482 131.969C133.787 132.66 133.034 133.34 132.225 134.008C131.416 134.675 130.571 135.315 129.695 135.925C128.828 136.524 127.961 137.053 127.094 137.514ZM152.146 127.824C152.146 128.445 152.67 128.756 153.719 128.756C154.493 128.756 155.509 128.377 156.762 127.617L158.13 126.856C158.552 126.615 158.917 126.493 159.225 126.493C159.544 126.493 159.795 126.592 159.976 126.788C160.159 126.984 160.25 127.254 160.25 127.599C160.25 127.945 160.136 128.348 159.909 128.808C159.68 129.258 159.367 129.735 158.968 130.242C158.569 130.737 158.102 131.232 157.566 131.728C157.03 132.212 156.454 132.649 155.839 133.04C154.471 133.905 153.2 134.335 152.026 134.335C150.784 134.335 149.792 134.123 149.05 133.697C148.823 133.558 148.6 133.414 148.384 133.265C147.164 134.67 145.397 135.96 143.083 137.134C140.621 138.378 138.472 139 136.636 139C134.71 139 133.188 138.234 132.071 136.702C131.17 135.459 130.72 134.198 130.72 132.919C130.72 131.077 131.694 129.321 133.644 127.651C135.08 126.43 136.466 125.504 137.799 124.87C139.145 124.237 140.358 123.748 141.441 123.402C143.732 122.677 145.796 122.314 147.631 122.314C148.452 122.314 149.182 122.474 149.819 122.798C150.47 123.109 150.949 123.425 151.256 123.748C151.986 124.473 152.351 125.401 152.351 126.529C152.351 126.862 152.316 127.121 152.248 127.306C152.18 127.49 152.146 127.663 152.146 127.824ZM138.158 131.088L138.14 131.14V131.158C138.14 131.653 138.249 131.975 138.466 132.124C138.991 132.448 139.544 132.534 140.124 132.385C140.706 132.223 141.258 132.027 141.784 131.797C143.083 131.232 144.256 130.519 145.306 129.654C145.123 129.287 145.032 128.907 145.032 128.515C145.032 127.686 145.391 126.856 146.11 126.027C145.197 126.027 143.966 126.459 142.415 127.323C140.706 128.279 139.424 129.263 138.568 130.277C138.296 130.622 138.158 130.893 138.158 131.088ZM177.486 126.27C178.216 126.27 178.58 126.574 178.58 127.184C178.58 127.934 178.136 128.826 177.247 129.862C175.776 131.59 174.044 133.27 172.049 134.906C168.8 137.532 165.898 138.845 163.346 138.845C161.51 138.845 160.005 138.039 158.831 136.426C157.611 134.745 157.002 132.488 157.002 129.654C157.002 125.935 158.797 121.824 162.388 117.322C164.668 114.454 166.816 112.509 168.834 111.484C169.462 111.16 169.941 111 170.271 111C170.612 111 170.92 111.057 171.194 111.172C171.479 111.275 171.742 111.426 171.98 111.622C172.54 112.094 172.818 112.664 172.818 113.331C172.818 113.999 172.636 114.794 172.272 115.715C171.907 116.625 171.376 117.598 170.681 118.635C169.21 120.834 167.222 122.942 164.714 124.957C164.064 126.212 163.738 127.72 163.738 129.483C163.738 130.277 163.99 131.025 164.491 131.728C165.004 132.43 165.568 132.781 166.184 132.781C167.028 132.781 168.641 131.901 171.022 130.138L174.067 127.772C175.31 126.77 176.449 126.27 177.486 126.27ZM204.452 125.491C204.817 125.491 205 125.804 205 126.425C205 127.495 204.258 128.884 202.776 130.588L201.802 131.59C198.849 134.572 196.068 136.559 193.457 137.548C191.839 138.159 190.676 138.131 189.969 137.462C189.388 136.898 188.926 135.988 188.585 134.733L188.173 133.23L184.531 135.493L182.429 136.702C179.92 138.084 178.04 138.775 176.786 138.775C175.178 138.775 173.839 138.147 172.767 136.893C171.742 135.706 171.229 134.33 171.229 132.764C171.229 131.221 171.838 129.845 173.057 128.636C174.802 126.909 177.555 125.325 181.317 123.886C184.874 122.539 187.747 121.864 189.935 121.864C190.676 121.864 191.046 122.233 191.046 122.97C191.046 123.476 190.95 123.857 190.756 124.111C190.562 124.363 190.163 124.622 189.559 124.888L187.404 125.82C184.212 127.168 181.876 128.567 180.394 130.017C179.971 130.42 179.761 130.812 179.761 131.192C179.761 131.572 180.062 131.762 180.667 131.762C181.259 131.762 182.639 131.117 184.805 129.828L186.225 128.981C188.425 127.646 190.266 126.977 191.748 126.977C193.001 126.977 193.834 127.536 194.244 128.653C194.347 128.952 194.443 129.258 194.534 129.569C194.625 129.868 194.717 130.138 194.808 130.381C195.013 130.944 195.196 131.226 195.356 131.226C195.526 131.226 195.766 131.147 196.074 130.985C196.381 130.812 196.718 130.599 197.082 130.346C197.458 130.081 197.846 129.793 198.245 129.483L200.314 127.806C202.15 126.263 203.529 125.491 204.452 125.491Z" fill="#97C738"/>
<path d="M119.152 153.671C119.259 153.572 119.359 153.517 119.454 153.504C119.548 153.491 119.618 153.517 119.666 153.577C119.725 153.628 119.743 153.707 119.719 153.818C119.708 153.917 119.637 154.041 119.507 154.188C119.234 154.471 118.939 154.78 118.619 155.112C118.3 155.433 117.939 155.741 117.536 156.038C117.631 156.222 117.737 156.389 117.855 156.537C117.95 156.673 118.062 156.808 118.193 156.943C118.323 157.067 118.471 157.159 118.637 157.221C118.613 157.27 118.559 157.319 118.477 157.368C118.394 157.418 118.305 157.473 118.21 157.535C118.103 157.597 117.986 157.665 117.855 157.738C117.536 157.899 117.27 157.986 117.056 157.997C116.843 158.01 116.666 157.98 116.524 157.905C116.382 157.832 116.27 157.721 116.186 157.573C116.116 157.424 116.056 157.27 116.009 157.11C115.997 157.098 115.991 157.067 115.991 157.018C115.991 156.994 115.985 156.975 115.974 156.962C115.595 157.122 115.198 157.252 114.784 157.351C114.369 157.449 113.938 157.499 113.488 157.499C112.92 157.499 112.458 157.381 112.103 157.148C111.76 156.913 111.505 156.624 111.339 156.278C111.162 155.933 111.056 155.563 111.021 155.168C110.984 154.761 110.996 154.392 111.056 154.058C111.162 153.368 111.499 152.628 112.068 151.839C112.647 151.05 113.417 150.168 114.375 149.195C114.435 149.133 114.5 149.071 114.57 149.01C114.642 148.948 114.707 148.887 114.766 148.825C114.766 148.492 114.772 148.178 114.784 147.882C114.808 147.574 114.831 147.277 114.855 146.995C114.867 146.883 114.878 146.779 114.89 146.68C114.903 146.569 114.92 146.458 114.944 146.347C115.063 145.718 115.252 145.194 115.512 144.775C115.773 144.343 116.056 143.999 116.364 143.739C116.684 143.468 116.991 143.276 117.288 143.165C117.594 143.054 117.855 143 118.068 143C118.21 143 118.364 143.024 118.53 143.073C118.707 143.122 118.861 143.21 118.992 143.332C119.134 143.456 119.24 143.622 119.311 143.832C119.382 144.042 119.394 144.307 119.347 144.627C119.3 144.898 119.222 145.163 119.116 145.421C119.021 145.682 118.867 145.971 118.655 146.291C118.453 146.599 118.175 146.957 117.82 147.364C117.477 147.771 117.039 148.258 116.506 148.825C116.459 148.874 116.412 148.917 116.364 148.954C116.329 148.992 116.293 149.035 116.258 149.084C116.317 150.218 116.441 151.31 116.631 152.358C116.832 153.406 117.021 154.306 117.198 155.057C117.222 155.155 117.241 155.224 117.251 155.26C117.5 155.101 117.731 154.941 117.945 154.78C118.157 154.607 118.341 154.447 118.495 154.299C118.66 154.152 118.797 154.022 118.903 153.911C119.021 153.799 119.105 153.72 119.152 153.671ZM114.234 156.241C114.494 156.241 114.743 156.222 114.979 156.186C115.216 156.136 115.453 156.081 115.689 156.019C115.583 155.649 115.465 155.193 115.334 154.65C115.216 154.107 115.11 153.498 115.015 152.82C114.968 152.462 114.926 152.104 114.89 151.747C114.867 151.389 114.843 151.038 114.819 150.692C113.458 152.283 112.706 153.51 112.565 154.373C112.542 154.546 112.542 154.743 112.565 154.965C112.589 155.174 112.659 155.378 112.778 155.574C112.897 155.76 113.068 155.92 113.293 156.056C113.529 156.179 113.843 156.241 114.234 156.241ZM116.382 145.477C116.299 146.082 116.245 146.717 116.222 147.382C116.79 146.803 117.276 146.285 117.678 145.829C118.08 145.372 118.311 144.966 118.37 144.608C118.394 144.435 118.37 144.269 118.3 144.108C118.24 143.937 118.122 143.85 117.945 143.85C117.754 143.85 117.571 143.899 117.393 143.999C117.216 144.097 117.056 144.226 116.915 144.386C116.785 144.534 116.672 144.707 116.578 144.904C116.483 145.089 116.418 145.28 116.382 145.477ZM135.492 157.073H133.184L128.692 149.396V157.073H126.383V145.405H128.692L133.192 153.099V145.405H135.492V157.073ZM142.347 156.192C141.798 156.886 141.04 157.233 140.07 157.233C139.178 157.233 138.496 156.966 138.023 156.432C137.556 155.898 137.319 155.115 137.308 154.083V148.402H139.532V154.004C139.532 154.907 139.926 155.359 140.716 155.359C141.47 155.359 141.989 155.086 142.27 154.541V148.402H144.501V157.073H142.409L142.347 156.192ZM148.84 146.27V148.402H150.264V150.102H148.84V154.428C148.84 154.749 148.899 154.979 149.017 155.117C149.136 155.256 149.361 155.326 149.694 155.326C149.94 155.326 150.159 155.307 150.348 155.27V157.025C149.913 157.164 149.463 157.233 149.002 157.233C147.443 157.233 146.647 156.413 146.617 154.773V150.102H145.402V148.402H146.617V146.27H148.84ZM156.18 150.574C155.877 150.531 155.61 150.509 155.38 150.509C154.539 150.509 153.987 150.806 153.726 151.399V157.073H151.503V148.402H153.602L153.664 149.436C154.11 148.64 154.728 148.242 155.518 148.242C155.764 148.242 155.996 148.276 156.21 148.345L156.18 150.574ZM159.604 157.073H157.373V148.402H159.604V157.073ZM157.242 146.158C157.242 145.81 157.352 145.525 157.572 145.3C157.798 145.077 158.103 144.964 158.488 144.964C158.867 144.964 159.17 145.077 159.395 145.3C159.621 145.525 159.735 145.81 159.735 146.158C159.735 146.511 159.618 146.799 159.388 147.024C159.163 147.248 158.862 147.361 158.488 147.361C158.113 147.361 157.811 147.248 157.58 147.024C157.354 146.799 157.242 146.511 157.242 146.158ZM164.104 146.27V148.402H165.527V150.102H164.104V154.428C164.104 154.749 164.163 154.979 164.281 155.117C164.399 155.256 164.625 155.326 164.958 155.326C165.204 155.326 165.423 155.307 165.612 155.27V157.025C165.175 157.164 164.727 157.233 164.265 157.233C162.707 157.233 161.911 156.413 161.881 154.773V150.102H160.666V148.402H161.881V146.27H164.104ZM169.112 157.073H166.882V148.402H169.112V157.073ZM166.751 146.158C166.751 145.81 166.861 145.525 167.082 145.3C167.307 145.077 167.613 144.964 167.997 144.964C168.376 144.964 168.679 145.077 168.905 145.3C169.13 145.525 169.243 145.81 169.243 146.158C169.243 146.511 169.128 146.799 168.897 147.024C168.671 147.248 168.371 147.361 167.997 147.361C167.622 147.361 167.319 147.248 167.089 147.024C166.864 146.799 166.751 146.511 166.751 146.158ZM170.605 152.657C170.605 151.797 170.764 151.031 171.082 150.358C171.4 149.684 171.856 149.164 172.451 148.795C173.051 148.426 173.747 148.242 174.536 148.242C175.659 148.242 176.576 148.599 177.283 149.315C177.996 150.032 178.394 151.004 178.475 152.233L178.491 152.826C178.491 154.155 178.134 155.225 177.422 156.032C176.709 156.833 175.751 157.233 174.551 157.233C173.352 157.233 172.393 156.833 171.674 156.032C170.962 155.23 170.605 154.14 170.605 152.762V152.657ZM172.828 152.826C172.828 153.648 172.977 154.279 173.274 154.717C173.572 155.15 173.998 155.366 174.551 155.366C175.09 155.366 175.51 155.153 175.813 154.725C176.116 154.292 176.268 153.602 176.268 152.657C176.268 151.85 176.116 151.225 175.813 150.782C175.51 150.339 175.085 150.117 174.536 150.117C173.993 150.117 173.572 150.339 173.274 150.782C172.977 151.22 172.828 151.902 172.828 152.826ZM181.906 148.402L181.976 149.403C182.571 148.629 183.369 148.242 184.369 148.242C185.251 148.242 185.907 148.512 186.338 149.051C186.769 149.59 186.989 150.397 187 151.471V157.073H184.776V151.527C184.776 151.036 184.674 150.681 184.468 150.461C184.263 150.237 183.923 150.126 183.445 150.126C182.82 150.126 182.351 150.403 182.037 150.959V157.073H179.814V148.402H181.906Z" fill="#97C738"/>
<path d="M61.5873 152.581H57.256V156.856H55V146.395H62.1289V148.14H57.256V150.842H61.5873V152.581ZM65.588 156.856H63.4072V149.082H65.588V156.856ZM63.2794 147.07C63.2794 146.758 63.3871 146.503 63.6027 146.301C63.8233 146.101 64.1216 146 64.4976 146C64.8685 146 65.1643 146.101 65.3849 146.301C65.6055 146.503 65.7158 146.758 65.7158 147.07C65.7158 147.387 65.603 147.645 65.3775 147.846C65.1569 148.048 64.8635 148.148 64.4976 148.148C64.1317 148.148 63.8358 148.048 63.6103 147.846C63.3897 147.645 63.2794 147.387 63.2794 147.07ZM69.9871 147.17V149.082H71.3783V150.606H69.9871V154.485C69.9871 154.772 70.0447 154.978 70.1601 155.103C70.2753 155.227 70.4959 155.29 70.8218 155.29C71.0624 155.29 71.2754 155.273 71.461 155.24V156.813C71.0348 156.938 70.5962 157 70.145 157C68.621 157 67.8439 156.264 67.8138 154.794V150.606H66.6257V149.082H67.8138V147.17H69.9871ZM74.5892 149.082L74.657 149.98C75.2385 149.286 76.018 148.938 76.9956 148.938C77.8579 148.938 78.4995 149.181 78.9207 149.664C79.3418 150.147 79.5573 150.871 79.5674 151.834V156.856H77.3941V151.884C77.3941 151.443 77.2939 151.125 77.0933 150.928C76.8928 150.727 76.5594 150.627 76.0933 150.627C75.4816 150.627 75.0229 150.876 74.7171 151.374V156.856H72.5439V149.082H74.5892ZM84.9666 157C83.7735 157 82.801 156.65 82.0489 155.951C81.302 155.251 80.9285 154.32 80.9285 153.156V152.955C80.9285 152.173 81.0864 151.477 81.4022 150.864C81.7181 150.246 82.1642 149.772 82.7408 149.441C83.3223 149.106 83.9841 148.938 84.726 148.938C85.8389 148.938 86.7138 149.274 87.3504 149.945C87.9922 150.615 88.313 151.566 88.313 152.797V153.645H83.1318C83.202 154.152 83.4126 154.56 83.7635 154.866C84.1194 155.173 84.5681 155.326 85.1095 155.326C85.9467 155.326 86.601 155.036 87.0722 154.457L88.14 155.599C87.8142 156.039 87.3731 156.384 86.8165 156.633C86.2601 156.878 85.6435 157 84.9666 157ZM84.7185 150.619C84.2874 150.619 83.9365 150.759 83.6658 151.036C83.4 151.314 83.2296 151.712 83.1543 152.229H86.1774V152.064C86.1673 151.604 86.037 151.25 85.7863 151.001C85.5356 150.746 85.1798 150.619 84.7185 150.619ZM93.9599 154.708C93.9599 154.454 93.8273 154.255 93.5619 154.111C93.3013 153.963 92.8795 153.832 92.299 153.716C90.3633 153.328 89.3959 152.542 89.3959 151.36C89.3959 150.67 89.6939 150.095 90.291 149.636C90.8928 149.171 91.6771 148.938 92.645 148.938C93.6768 148.938 94.5013 149.171 95.1186 149.636C95.7405 150.1 96.0509 150.703 96.0509 151.446H93.8782C93.8782 151.149 93.7775 150.905 93.5773 150.713C93.3759 150.516 93.0631 150.418 92.6367 150.418C92.2706 150.418 91.9875 150.497 91.7873 150.656C91.587 150.814 91.4864 151.014 91.4864 151.259C91.4864 151.489 91.5989 151.675 91.8252 151.819C92.055 151.958 92.4412 152.081 92.9826 152.186C93.524 152.287 93.9801 152.401 94.3509 152.531C95.5 152.933 96.0734 153.63 96.0734 154.622C96.0734 155.33 95.7547 155.905 95.1186 156.346C94.4824 156.782 93.659 157 92.6521 157C91.9697 157 91.3631 156.885 90.8324 156.655C90.3052 156.42 89.8918 156.101 89.5909 155.699C89.2906 155.292 89.1402 154.854 89.1402 154.384H91.2009C91.221 154.753 91.3632 155.036 91.6297 155.232C91.8951 155.429 92.2505 155.527 92.6971 155.527C93.1129 155.527 93.4268 155.453 93.6365 155.304C93.8521 155.15 93.9599 154.952 93.9599 154.708ZM101.887 154.708C101.887 154.454 101.754 154.255 101.487 154.111C101.227 153.963 100.806 153.832 100.224 153.716C98.2899 153.328 97.322 152.542 97.322 151.36C97.322 150.67 97.6206 150.095 98.2165 149.636C98.8183 149.171 99.6025 148.938 100.57 148.938C101.603 148.938 102.428 149.171 103.044 149.636C103.666 150.1 103.976 150.703 103.976 151.446H101.804C101.804 151.149 101.703 150.905 101.503 150.713C101.303 150.516 100.989 150.418 100.563 150.418C100.197 150.418 99.9141 150.497 99.7127 150.656C99.5125 150.814 99.4118 151.014 99.4118 151.259C99.4118 151.489 99.5255 151.675 99.7506 151.819C99.9816 151.958 100.368 152.081 100.909 152.186C101.451 152.287 101.907 152.401 102.277 152.531C103.425 152.933 104 153.63 104 154.622C104 155.33 103.681 155.905 103.044 156.346C102.408 156.782 101.586 157 100.577 157C99.8963 157 99.2898 156.885 98.7578 156.655C98.2319 156.42 97.8184 156.101 97.5175 155.699C97.2166 155.292 97.0661 154.854 97.0661 154.384H99.1263C99.1464 154.753 99.2898 155.036 99.5551 155.232C99.8205 155.429 100.177 155.527 100.623 155.527C101.04 155.527 101.352 155.453 101.563 155.304C101.779 155.15 101.887 154.952 101.887 154.708Z" fill="#97C738"/>
</svg>
