<svg width="180" height="180" viewBox="0 0 180 180" fill="none" xmlns="http://www.w3.org/2000/svg">
<circle cx="90" cy="90" r="90" fill="#EDECF4"/>
<path d="M83.5547 99.5391C83.5547 95.8932 83.9974 92.9896 84.8828 90.8281C85.7682 88.6667 87.3828 86.5443 89.7266 84.4609C92.0964 82.3516 93.6719 80.6458 94.4531 79.3438C95.2344 78.0156 95.625 76.6224 95.625 75.1641C95.625 70.763 93.5938 68.5625 89.5312 68.5625C87.6042 68.5625 86.0547 69.1615 84.8828 70.3594C83.737 71.5312 83.138 73.1589 83.0859 75.2422H71.7578C71.8099 70.2682 73.4115 66.375 76.5625 63.5625C79.7396 60.75 84.0625 59.3438 89.5312 59.3438C95.0521 59.3438 99.3359 60.6849 102.383 63.3672C105.43 66.0234 106.953 69.7865 106.953 74.6562C106.953 76.8698 106.458 78.9661 105.469 80.9453C104.479 82.8984 102.747 85.0729 100.273 87.4688L97.1094 90.4766C95.1302 92.3776 93.9974 94.6042 93.7109 97.1562L93.5547 99.5391H83.5547ZM82.4219 111.531C82.4219 109.786 83.0078 108.354 84.1797 107.234C85.3776 106.089 86.901 105.516 88.75 105.516C90.599 105.516 92.1094 106.089 93.2812 107.234C94.4792 108.354 95.0781 109.786 95.0781 111.531C95.0781 113.25 94.4922 114.669 93.3203 115.789C92.1745 116.909 90.651 117.469 88.75 117.469C86.849 117.469 85.3125 116.909 84.1406 115.789C82.9948 114.669 82.4219 113.25 82.4219 111.531Z" fill="#B0B0B0"/>
</svg>
