<svg width="512" height="372" viewBox="0 0 512 372" fill="none" xmlns="http://www.w3.org/2000/svg">
<path d="M361.5 70.148H50.689L94.218 26.438C100.064 20.568 100.044 11.07 94.174 5.22396C88.303 -0.62304 78.806 -0.602041 72.961 5.26796L4.372 74.143C1.403 77.125 -0.045 81.042 0.011 84.943C0.009 85.012 0 85.079 0 85.148C0 90.349 2.649 94.929 6.669 97.62L72.961 164.188C78.808 170.058 88.304 170.077 94.174 164.232C100.044 158.386 100.064 148.888 94.218 143.018L51.526 100.148H361.5C427.944 100.148 482 154.204 482 220.648C482 287.092 427.944 341.148 361.5 341.148H15C6.716 341.148 0 347.864 0 356.148C0 364.432 6.716 371.148 15 371.148H361.5C444.486 371.148 512 303.634 512 220.648C512 137.662 444.486 70.148 361.5 70.148Z"/>
</svg>
