<svg width="23" height="17" viewBox="0 0 23 17" fill="none" xmlns="http://www.w3.org/2000/svg">
<path d="M6.22485 12.4879C6.56986 12.9191 6.49993 13.5484 6.06867 13.8934C5.63741 14.2384 5.00812 14.1685 4.66311 13.7373L0.160156 8.10856L4.66701 2.54629C5.01469 2.11718 5.64441 2.05117 6.07352 2.39886C6.50262 2.74654 6.56863 3.37626 6.22095 3.80537L2.7278 8.11655L6.22485 12.4879ZM16.3793 12.4879L19.8764 8.11655L16.3832 3.80537C16.0355 3.37626 16.1015 2.74654 16.5306 2.39886C16.9598 2.05117 17.5895 2.11718 17.9372 2.54629L22.444 8.10856L17.9411 13.7373C17.5961 14.1685 16.9668 14.2384 16.5355 13.8934C16.1042 13.5484 16.0343 12.9191 16.3793 12.4879ZM14.4055 1.38728L10.4055 15.3873C10.2538 15.9183 9.70029 16.2258 9.16926 16.0741C8.63822 15.9224 8.33073 15.3689 8.48245 14.8378L12.4825 0.837837C12.6342 0.306802 13.1877 -0.00068552 13.7187 0.151038C14.2497 0.302763 14.5572 0.85624 14.4055 1.38728Z" />
</svg>
