<svg width="27" height="20" viewBox="0 0 27 20" fill="none" xmlns="http://www.w3.org/2000/svg">
<path d="M9.81846 8.75003H2.45518L2.45573 0.00017166L0.0013108 0L0 19.9999L2.45443 20L2.45498 11.25H9.81827L9.81772 19.9999L12.2721 20L12.2734 0.00017166L9.81902 0L9.81846 8.75003ZM22.182 13.3043C19.9071 14.9305 18.8612 15.9935 18.5304 17.5H27V20H15.9534L15.9537 18.7495C15.9551 15.4362 17.3189 13.7265 20.7719 11.258C20.9165 11.1548 20.9165 11.1548 21.0594 11.0526C23.7214 9.14989 24.5456 8.14334 24.5456 6.25005V5.62505C24.5456 3.89918 23.172 2.50007 21.4775 2.50007C19.7831 2.50007 18.4095 3.89918 18.4095 5.62505V7.50004H15.9551V5.62505C15.9551 2.51847 18.4275 8.58302e-05 21.4775 8.58302e-05C24.5275 8.58302e-05 27 2.51847 27 5.62505V6.25005C27 9.22247 25.7403 10.761 22.4694 13.0989C22.3251 13.202 22.3251 13.202 22.182 13.3043Z" />
</svg>
