<svg width="25" height="22" viewBox="0 0 25 22" fill="none" xmlns="http://www.w3.org/2000/svg">
<path d="M3.01611 18.0176L3.87061 17.0337C4.04067 16.8441 4.12955 16.5953 4.11816 16.3408V16.1792C4.11816 15.8203 3.93066 15.625 3.56445 15.625H0.78125C0.67765 15.625 0.578293 15.6662 0.505036 15.7394C0.43178 15.8127 0.390625 15.912 0.390625 16.0156V16.7969C0.390625 16.9005 0.43178 16.9998 0.505036 17.0731C0.578293 17.1463 0.67765 17.1875 0.78125 17.1875H1.896C1.70657 17.3783 1.52729 17.579 1.35889 17.7886L1.08496 18.1304C0.889648 18.3779 0.828613 18.625 0.948242 18.8569L0.999512 18.9512C1.146 19.2324 1.30664 19.3359 1.59766 19.3359H1.82861C2.33301 19.3359 2.60693 19.4551 2.60693 19.7798C2.60693 20.0103 2.40186 20.1812 1.90576 20.1812C1.64655 20.1791 1.39013 20.1274 1.15039 20.0288C0.833496 19.8394 0.577148 19.8579 0.388672 20.1812L0.115723 20.6357C-0.065918 20.9351 -0.0400391 21.208 0.244141 21.4141C0.620605 21.6431 1.23926 21.875 2.05078 21.875C3.71875 21.875 4.41895 20.7642 4.41895 19.7207C4.41748 19.0186 3.97363 18.2676 3.01611 18.0176ZM24.2188 9.375H8.59375C8.38655 9.375 8.18784 9.45731 8.04132 9.60382C7.89481 9.75034 7.8125 9.94905 7.8125 10.1562V11.7188C7.8125 11.926 7.89481 12.1247 8.04132 12.2712C8.18784 12.4177 8.38655 12.5 8.59375 12.5H24.2188C24.426 12.5 24.6247 12.4177 24.7712 12.2712C24.9177 12.1247 25 11.926 25 11.7188V10.1562C25 9.94905 24.9177 9.75034 24.7712 9.60382C24.6247 9.45731 24.426 9.375 24.2188 9.375ZM24.2188 1.5625H8.59375C8.38655 1.5625 8.18784 1.64481 8.04132 1.79132C7.89481 1.93784 7.8125 2.13655 7.8125 2.34375V3.90625C7.8125 4.11345 7.89481 4.31216 8.04132 4.45868C8.18784 4.60519 8.38655 4.6875 8.59375 4.6875H24.2188C24.426 4.6875 24.6247 4.60519 24.7712 4.45868C24.9177 4.31216 25 4.11345 25 3.90625V2.34375C25 2.13655 24.9177 1.93784 24.7712 1.79132C24.6247 1.64481 24.426 1.5625 24.2188 1.5625ZM24.2188 17.1875H8.59375C8.38655 17.1875 8.18784 17.2698 8.04132 17.4163C7.89481 17.5628 7.8125 17.7615 7.8125 17.9688V19.5312C7.8125 19.7385 7.89481 19.9372 8.04132 20.0837C8.18784 20.2302 8.38655 20.3125 8.59375 20.3125H24.2188C24.426 20.3125 24.6247 20.2302 24.7712 20.0837C24.9177 19.9372 25 19.7385 25 19.5312V17.9688C25 17.7615 24.9177 17.5628 24.7712 17.4163C24.6247 17.2698 24.426 17.1875 24.2188 17.1875ZM0.78125 6.25H3.90625C4.00985 6.25 4.10921 6.20885 4.18246 6.13559C4.25572 6.06233 4.29688 5.96298 4.29688 5.85938V5.07812C4.29688 4.97452 4.25572 4.87517 4.18246 4.80191C4.10921 4.72865 4.00985 4.6875 3.90625 4.6875H3.125V0.390625C3.125 0.287025 3.08384 0.187668 3.01059 0.114411C2.93733 0.0411551 2.83798 0 2.73438 0H1.5625C1.4901 0.000129222 1.41915 0.0203792 1.35759 0.0584895C1.29603 0.0965997 1.24627 0.15107 1.21387 0.21582L0.823242 0.99707C0.793467 1.05657 0.779384 1.12269 0.782329 1.18917C0.785274 1.25564 0.80515 1.32025 0.84007 1.37689C0.874991 1.43353 0.923799 1.4803 0.981867 1.51279C1.03994 1.54527 1.10534 1.56238 1.17188 1.5625H1.5625V4.6875H0.78125C0.67765 4.6875 0.578293 4.72865 0.505036 4.80191C0.43178 4.87517 0.390625 4.97452 0.390625 5.07812V5.85938C0.390625 5.96298 0.43178 6.06233 0.505036 6.13559C0.578293 6.20885 0.67765 6.25 0.78125 6.25ZM0.590332 14.0625H3.90625C4.00985 14.0625 4.10921 14.0213 4.18246 13.9481C4.25572 13.8748 4.29688 13.7755 4.29688 13.6719V12.8906C4.29688 12.787 4.25572 12.6877 4.18246 12.6144C4.10921 12.5412 4.00985 12.5 3.90625 12.5H2.01758C2.17822 11.9976 4.37793 11.5879 4.37793 9.74414C4.37793 8.3252 3.15723 7.8125 2.20654 7.8125C1.16357 7.8125 0.556152 8.30078 0.230957 8.72803C0.0175781 9.00098 0.0844727 9.25732 0.367676 9.47852L0.786621 9.81445C1.06055 10.0371 1.32373 9.93506 1.57373 9.69531C1.69704 9.57449 1.863 9.50712 2.03564 9.50781C2.19824 9.50781 2.48877 9.58398 2.48877 9.93506C2.49023 10.5562 0 11.0015 0 13.3101V13.5054C0 13.8672 0.248047 14.0625 0.590332 14.0625Z" />
</svg>
