<svg width="22" height="18" viewBox="0 0 22 18" fill="none" xmlns="http://www.w3.org/2000/svg">
<path d="M6 2.57143C5.44771 2.57143 5 1.9958 5 1.28571C5 0.575634 5.44771 0 6 0H20.9989C21.5512 0 21.9989 0.575634 21.9989 1.28571C21.9989 1.9958 21.5512 2.57143 20.9989 2.57143H6ZM6 10.2857C5.44771 10.2857 5 9.71009 5 9C5 8.28991 5.44771 7.71429 6 7.71429H20.9989C21.5512 7.71429 21.9989 8.28991 21.9989 9C21.9989 9.71009 21.5512 10.2857 20.9989 10.2857H6ZM6 18C5.44771 18 5 17.4244 5 16.7143C5 16.0042 5.44771 15.4286 6 15.4286H20.9989C21.5512 15.4286 21.9989 16.0042 21.9989 16.7143C21.9989 17.4244 21.5512 18 20.9989 18H6ZM1 2.57143C0.447715 2.57143 0 1.9958 0 1.28571C0 0.575634 0.447715 0 1 0H1.99893C2.55122 0 2.99893 0.575634 2.99893 1.28571C2.99893 1.9958 2.55122 2.57143 1.99893 2.57143H1ZM1 10.2857C0.447715 10.2857 0 9.71009 0 9C0 8.28991 0.447715 7.71429 1 7.71429H1.99893C2.55122 7.71429 2.99893 8.28991 2.99893 9C2.99893 9.71009 2.55122 10.2857 1.99893 10.2857H1ZM1 18C0.447715 18 0 17.4244 0 16.7143C0 16.0042 0.447715 15.4286 1 15.4286H1.99893C2.55122 15.4286 2.99893 16.0042 2.99893 16.7143C2.99893 17.4244 2.55122 18 1.99893 18H1Z" />
</svg>
