<svg width="21" height="20" viewBox="0 0 21 20" fill="none" xmlns="http://www.w3.org/2000/svg">
<path fill-rule="evenodd" clip-rule="evenodd" d="M1 0H20C20.5523 0 21 0.407014 21 0.909091V19.0909C21 19.593 20.5523 20 20 20H1C0.447716 20 0 19.593 0 19.0909V0.909091C0 0.407014 0.447716 0 1 0ZM2 1.81818V14.5455H19V1.81818H2ZM6.48665 6.81818C5.52015 6.81818 4.73666 6.10591 4.73666 5.22727C4.73666 4.34864 5.52015 3.63636 6.48665 3.63636C7.45315 3.63636 6.48665 4.34864 6.48665 5.22727C6.48665 6.10591 7.45315 6.81818 6.48665 6.81818ZM4.4931 11.4771L7.06965 9.41309L8.9073 10.6029L12.5687 7.21705C12.7623 7.038 13.0788 7.03555 13.2758 7.21155C13.3003 7.23345 13.3222 7.25759 13.3413 7.28355L16.4818 11.566C16.635 11.7749 16.5728 12.0571 16.3431 12.1964C16.261 12.2462 16.1644 12.2727 16.0658 12.2727H4.82367C4.54752 12.2727 4.32367 12.0692 4.32367 11.8182C4.32367 11.6877 4.38539 11.5635 4.4931 11.4771Z" />
</svg>
