<svg width="512" height="512" viewBox="0 0 512 512" fill="none" xmlns="http://www.w3.org/2000/svg">
<g clip-path="url(#clip0)">
<path d="M304.084 405.907C308.77 410.593 308.77 418.191 304.084 422.878L259.41 467.552C200.147 526.814 103.717 526.818 44.4488 467.552C-14.8152 408.287 -14.8152 311.856 44.4488 252.592L89.1237 207.917C93.8097 203.231 101.408 203.231 106.095 207.917L145.693 247.515C150.379 252.201 150.379 259.799 145.693 264.486L101.018 309.16C72.9457 337.233 72.9457 382.91 101.018 410.983C129.09 439.055 174.768 439.056 202.842 410.983L247.516 366.309C252.202 361.623 259.8 361.623 264.487 366.309L304.084 405.907ZM247.516 145.691C252.202 150.377 259.8 150.377 264.487 145.691L309.161 101.017C337.233 72.942 382.911 72.944 410.985 101.017C439.057 129.09 439.057 174.767 410.985 202.84L366.31 247.514C361.624 252.2 361.624 259.798 366.31 264.485L405.908 304.083C410.594 308.769 418.192 308.769 422.879 304.083L467.554 259.408C526.819 200.143 526.819 103.713 467.554 44.448C408.288 -14.816 311.859 -14.816 252.593 44.448L207.919 89.122C203.233 93.808 203.233 101.406 207.919 106.093L247.516 145.691ZM482.344 504.971L504.971 482.344C514.344 472.971 514.344 457.775 504.971 448.403L63.5988 7.02902C54.2258 -2.34398 39.0297 -2.34398 29.6577 7.02902L7.02975 29.657C-2.34325 39.03 -2.34325 54.226 7.02975 63.598L448.403 504.971C457.776 514.343 472.972 514.343 482.344 504.971V504.971Z" />
</g>
<defs>
<clipPath id="clip0">
<rect width="512" height="512" fill="white"/>
</clipPath>
</defs>
</svg>
